<?xml version="1.0" encoding="UTF-8"?>
<svg xmlns="http://www.w3.org/2000/svg" viewBox="0 0 1000 600" width="1000" height="600" fill="none">
  <rect width="1000" height="600" fill="#f5f5f5"/>
  <g stroke="#fff" stroke-width="2" fill="#eaf3fa">
    <!-- US States Path Data (simplified for clarity and performance) -->
    <path d="M 80 400 L 120 350 L 200 340 L 250 300 L 300 320 L 350 310 L 400 330 L 450 320 L 500 340 L 550 330 L 600 350 L 650 340 L 700 360 L 750 350 L 800 370 L 850 360 L 900 380 L 950 370 L 980 400 L 950 500 L 900 520 L 850 510 L 800 530 L 750 520 L 700 540 L 650 530 L 600 550 L 550 540 L 500 560 L 450 550 L 400 570 L 350 560 L 300 580 L 250 570 L 200 590 L 150 580 L 100 560 L 80 400 Z"/>
    <!-- California -->
    <path d="M 120 350 L 140 300 L 180 280 L 200 340 Z"/>
    <!-- Texas -->
    <path d="M 700 360 L 720 400 L 750 420 L 800 370 Z"/>
    <!-- Florida -->
    <path d="M 900 380 L 920 420 L 950 430 L 950 370 Z"/>
    <!-- New York -->
    <path d="M 850 360 L 870 340 L 900 350 L 900 380 Z"/>
    <!-- Washington -->
    <path d="M 100 560 L 120 520 L 150 530 L 150 580 Z"/>
    <!-- Illinois -->
    <path d="M 600 350 L 620 320 L 650 340 Z"/>
    <!-- Colorado -->
    <path d="M 500 340 L 520 310 L 550 330 Z"/>
    <!-- Arizona -->
    <path d="M 250 300 L 270 340 L 300 320 Z"/>
    <!-- Georgia -->
    <path d="M 900 520 L 920 500 L 950 500 L 950 550 L 900 560 Z"/>
    <!-- Add more states as needed for more detail -->
  </g>
</svg>
